<svg width="58" height="58" viewBox="0 0 58 58" fill="none" xmlns="http://www.w3.org/2000/svg">
<rect x="0.5" y="0.5" width="57" height="57" rx="15.5" fill="url(#paint0_linear_446_609)" stroke="url(#paint1_linear_446_609)"/>
<path d="M53.3333 29.1667C53.3333 15.8198 42.5136 5 29.1667 5C15.8198 5 5 15.8198 5 29.1667C5 41.2289 13.8374 51.2268 25.3906 53.0398V36.1524H19.2546V29.1667H25.3906V23.8425C25.3906 17.7857 28.9985 14.4401 34.5187 14.4401C37.1628 14.4401 39.9284 14.9121 39.9284 14.9121V20.8594H36.881C33.8789 20.8594 32.9427 22.7223 32.9427 24.6334V29.1667H39.6452L38.5737 36.1524H32.9427V53.0398C44.4959 51.2268 53.3333 41.2289 53.3333 29.1667" fill="#1877F2"/>
<path d="M38.5738 36.1524L39.6453 29.1667H32.9428V24.6334C32.9428 22.7223 33.879 20.8594 36.8811 20.8594H39.9285V14.9121C39.9285 14.9121 37.1628 14.4401 34.5188 14.4401C28.9986 14.4401 25.3907 17.7857 25.3907 23.8425V29.1667H19.2546V36.1524H25.3907V53.0398C26.6398 53.2355 27.9024 53.3337 29.1667 53.3333C30.4514 53.3333 31.7124 53.2328 32.9428 53.0398V36.1524H38.5738Z" fill="white"/>
<defs>
<linearGradient id="paint0_linear_446_609" x1="29" y1="0" x2="29" y2="58" gradientUnits="userSpaceOnUse">
<stop stop-color="white" stop-opacity="0.5"/>
<stop offset="1" stop-color="white" stop-opacity="0.1"/>
</linearGradient>
<linearGradient id="paint1_linear_446_609" x1="29" y1="0" x2="29" y2="58" gradientUnits="userSpaceOnUse">
<stop stop-color="white" stop-opacity="0.5"/>
<stop offset="1" stop-color="white" stop-opacity="0"/>
</linearGradient>
</defs>
</svg>
