<svg width="58" height="58" viewBox="0 0 58 58" fill="none" xmlns="http://www.w3.org/2000/svg">
<rect x="0.5" y="0.5" width="57" height="57" rx="15.5" fill="url(#paint0_linear_446_607)" stroke="url(#paint1_linear_446_607)"/>
<path d="M7.50305 18.4628C8.99972 15.344 11.1144 12.7079 13.7794 10.516C17.3907 7.53233 21.5331 5.73633 26.1776 5.18595C31.6331 4.539 36.7604 5.57218 41.5015 8.41102C42.6795 9.1159 43.7803 9.91734 44.8328 10.7864C45.0935 10.9988 45.0645 11.1243 44.8424 11.3368C42.6892 13.4804 40.5359 15.624 38.4019 17.7869C38.1509 18.0379 38.0157 18.0186 37.7453 17.8159C31.4883 12.9976 22.3635 14.3011 17.6997 20.674C16.8789 21.7941 16.2127 23.0011 15.7492 24.3143C15.7106 24.4302 15.6333 24.5364 15.5754 24.6522C14.3298 23.706 13.0745 22.7597 11.8386 21.8038C10.3902 20.6933 8.94178 19.5829 7.50305 18.4628Z" fill="#E94335"/>
<path d="M15.5754 33.7095C15.9906 34.6268 16.3382 35.5827 16.8596 36.4421C19.0515 40.0341 22.18 42.3418 26.3031 43.1626C30.0206 43.9061 33.5933 43.404 36.9246 41.5404C37.0405 41.4825 37.1563 41.4245 37.2625 41.3666C37.3205 41.4245 37.3688 41.4921 37.4267 41.5404C39.9179 43.4716 42.4188 45.4028 44.91 47.3339C43.7127 48.5216 42.3512 49.4776 40.9028 50.308C36.7025 52.7026 32.1546 53.6682 27.3652 53.3013C21.3979 52.8378 16.2513 50.4818 12.0027 46.2332C10.1391 44.3696 8.60384 42.2646 7.49341 39.8603C8.52659 39.0685 9.55977 38.2864 10.593 37.4946C12.2538 36.2297 13.9146 34.9744 15.5754 33.7095Z" fill="#34A853"/>
<path d="M44.9197 47.3339C42.4285 45.4027 39.9276 43.4716 37.4364 41.5404C37.3784 41.4921 37.3205 41.4245 37.2722 41.3666C38.1316 40.7003 39.0103 40.0534 39.7152 39.2037C40.8932 37.7939 41.6753 36.2007 42.0809 34.4143C42.1291 34.1922 42.0905 34.115 41.8684 34.1247C41.7526 34.1343 41.6463 34.1247 41.5305 34.1247C37.5909 34.1247 33.6416 34.115 29.702 34.1343C29.2675 34.1343 29.1709 34.0184 29.1806 33.6032C29.1999 30.803 29.1999 28.0028 29.1806 25.2026C29.1806 24.8453 29.2771 24.7488 29.6344 24.7488C36.857 24.7584 44.0796 24.7584 51.3119 24.7488C51.6209 24.7488 51.7464 24.826 51.8237 25.1543C52.4127 27.8097 52.374 30.4747 52.0168 33.1591C51.7271 35.3027 51.2057 37.3787 50.4042 39.3871C49.2166 42.3515 47.4688 44.9393 45.1707 47.1601C45.0838 47.2277 44.9969 47.276 44.9197 47.3339Z" fill="#4285F3"/>
<path d="M15.5754 33.7095C13.9146 34.9744 12.2538 36.2297 10.593 37.4946C9.55977 38.2767 8.52659 39.0685 7.49341 39.8603C6.69197 38.3733 6.17055 36.7994 5.74569 35.1772C4.9346 32.039 4.80907 28.8526 5.25324 25.6565C5.60085 23.1459 6.32505 20.732 7.49341 18.4725C8.94179 19.5829 10.3805 20.703 11.8289 21.8134C13.0745 22.7693 14.3201 23.7156 15.5657 24.6619C15.3533 25.6951 15.054 26.709 14.9574 27.7711C14.7836 29.7023 14.9671 31.5852 15.5175 33.4391C15.5561 33.5164 15.5657 33.6129 15.5754 33.7095Z" fill="#FABB06"/>
<defs>
<linearGradient id="paint0_linear_446_607" x1="29" y1="0" x2="29" y2="58" gradientUnits="userSpaceOnUse">
<stop stop-color="white" stop-opacity="0.5"/>
<stop offset="1" stop-color="white" stop-opacity="0.1"/>
</linearGradient>
<linearGradient id="paint1_linear_446_607" x1="29" y1="0" x2="29" y2="58" gradientUnits="userSpaceOnUse">
<stop stop-color="white" stop-opacity="0.5"/>
<stop offset="1" stop-color="white" stop-opacity="0"/>
</linearGradient>
</defs>
</svg>
