<svg width="30" height="30" viewBox="0 0 30 30" fill="none" xmlns="http://www.w3.org/2000/svg">
<rect x="0.5" y="0.5" width="29" height="29" rx="7.5" fill="url(#paint0_linear_33_56)" stroke="url(#paint1_linear_33_56)"/>
<path d="M11 6C8.239 6 6 8.239 6 11V19C6 21.761 8.239 24 11 24H19C21.761 24 24 21.761 24 19V11C24 8.239 21.761 6 19 6H11ZM11 8H19C20.657 8 22 9.343 22 11V19C22 20.657 20.657 22 19 22H11C9.343 22 8 20.657 8 19V11C8 9.343 9.343 8 11 8ZM19 10C18.448 10 18 10.448 18 11C18 11.552 18.448 12 19 12C19.552 12 20 11.552 20 11C20 10.448 19.552 10 19 10ZM15 11C12.791 11 11 12.791 11 15C11 17.209 12.791 19 15 19C17.209 19 19 17.209 19 15C19 12.791 17.209 11 15 11ZM15 13C16.105 13 17 13.895 17 15C17 16.105 16.105 17 15 17C13.895 17 13 16.105 13 15C13 13.895 13.895 13 15 13Z" fill="url(#paint2_linear_33_56)"/>
<defs>
<linearGradient id="paint0_linear_33_56" x1="15" y1="0" x2="15" y2="30" gradientUnits="userSpaceOnUse">
<stop stop-color="white" stop-opacity="0.5"/>
<stop offset="1" stop-color="white" stop-opacity="0.1"/>
</linearGradient>
<linearGradient id="paint1_linear_33_56" x1="15" y1="0" x2="15" y2="30" gradientUnits="userSpaceOnUse">
<stop stop-color="white" stop-opacity="0.5"/>
<stop offset="1" stop-color="white" stop-opacity="0"/>
</linearGradient>
<linearGradient id="paint2_linear_33_56" x1="15" y1="6" x2="15" y2="24" gradientUnits="userSpaceOnUse">
<stop/>
<stop offset="1" stop-opacity="0.4"/>
</linearGradient>
</defs>
</svg>
