<svg width="30" height="30" viewBox="0 0 30 30" fill="none" xmlns="http://www.w3.org/2000/svg">
<rect x="0.5" y="0.5" width="29" height="29" rx="7.5" fill="url(#paint0_linear_33_55)" stroke="url(#paint1_linear_33_55)"/>
<path d="M24.9514 12.343V12.1525V12.0192C24.6844 10.6141 24.008 9.31445 23.0037 8.27634C21.922 7.15892 20.588 6.30443 19.1083 5.78113C17.7931 5.28484 16.3984 5.02043 14.9889 5.00018C13.1309 4.98981 11.2986 5.4247 9.65214 6.26683C8.2105 6.92642 7.00038 7.988 6.17387 9.31818C5.34737 10.6484 4.94135 12.1878 5.00684 13.7429C5.15339 15.2805 5.76731 16.74 6.76952 17.9334C7.77121 19.1135 9.05592 20.0329 10.5091 20.6095C11.4089 20.9481 12.3424 21.1938 13.2944 21.3429H13.4015C13.6742 21.3429 13.7423 21.4571 13.7618 21.4857C13.7813 21.5543 13.7813 21.6267 13.7618 21.6952C13.7618 21.7524 13.7618 21.8 13.7618 21.8476C13.6212 22.268 13.5779 22.7137 13.6352 23.1524C13.6617 23.3864 13.7759 23.6025 13.9557 23.759C14.1356 23.9156 14.3683 24.0014 14.6091 24C15.1734 23.9322 15.7119 23.7294 16.177 23.4095H16.2257C17.1995 22.8571 18.115 22.219 18.8064 21.7333C20.4751 20.6642 21.9913 19.3832 23.3154 17.9239C24.5925 16.3476 25.1806 14.3415 24.9514 12.343ZM11.2298 15.3239H9.50606C9.44431 15.3252 9.38293 15.3142 9.32562 15.2917C9.2683 15.2692 9.21624 15.2356 9.17256 15.1929C9.12889 15.1502 9.09451 15.0993 9.07149 15.0432C9.04846 14.9872 9.03728 14.9271 9.03861 14.8667V11.3239C9.03728 11.2635 9.04846 11.2035 9.07149 11.1475C9.09451 11.0914 9.12889 11.0405 9.17256 10.9978C9.21624 10.9551 9.2683 10.9214 9.32562 10.8989C9.38293 10.8764 9.44431 10.8655 9.50606 10.8668C9.56826 10.8655 9.6301 10.8764 9.68794 10.8988C9.74578 10.9212 9.79847 10.9547 9.84291 10.9973C9.88736 11.0398 9.92266 11.0907 9.94676 11.1468C9.97086 11.2028 9.98326 11.2631 9.98325 11.3239V14.4001H11.2298C11.3563 14.4001 11.4777 14.4492 11.5672 14.5368C11.6567 14.6243 11.707 14.743 11.707 14.8667C11.707 14.9276 11.6946 14.9878 11.6705 15.0439C11.6464 15.1 11.6111 15.1508 11.5666 15.1934C11.5222 15.236 11.4695 15.2695 11.4117 15.2919C11.3538 15.3143 11.292 15.3251 11.2298 15.3239ZM13.0314 14.8572C13.0314 14.9835 12.9801 15.1046 12.8888 15.1939C12.7975 15.2832 12.6736 15.3334 12.5445 15.3334C12.4154 15.3334 12.2915 15.2832 12.2002 15.1939C12.1089 15.1046 12.0576 14.9835 12.0576 14.8572V11.3144C12.0576 11.1881 12.1089 11.067 12.2002 10.9777C12.2915 10.8884 12.4154 10.8382 12.5445 10.8382C12.6736 10.8382 12.7975 10.8884 12.8888 10.9777C12.9801 11.067 13.0314 11.1881 13.0314 11.3144V14.8572ZM17.2969 14.8572C17.2956 14.955 17.2629 15.0498 17.2035 15.1284C17.1441 15.207 17.061 15.2654 16.9658 15.2953H16.8197C16.7454 15.2961 16.6719 15.2792 16.6057 15.246C16.5396 15.2128 16.4826 15.1644 16.4399 15.1048L14.7454 12.8382V14.8572C14.7429 14.9793 14.6915 15.0956 14.6023 15.1811C14.513 15.2665 14.3931 15.3144 14.2682 15.3144C14.2044 15.3183 14.1405 15.3093 14.0804 15.2881C14.0202 15.2669 13.9652 15.2338 13.9186 15.191C13.8721 15.1482 13.835 15.0964 13.8097 15.039C13.7844 14.9816 13.7714 14.9197 13.7716 14.8572V11.4192C13.7716 11.3213 13.8025 11.2258 13.86 11.1457C13.9175 11.0656 13.9988 11.0048 14.0929 10.9715C14.1879 10.943 14.2897 10.9442 14.3839 10.9749C14.4782 11.0057 14.5603 11.0644 14.6188 11.143L16.3231 13.4287V11.3144C16.3231 11.1881 16.3744 11.067 16.4657 10.9777C16.557 10.8884 16.6808 10.8382 16.81 10.8382C16.9391 10.8382 17.063 10.8884 17.1543 10.9777C17.2456 11.067 17.2969 11.1881 17.2969 11.3144V14.8572ZM20.7346 15.2382H18.3974C18.3356 15.2395 18.2742 15.2285 18.2169 15.206C18.1596 15.1835 18.1076 15.1499 18.0639 15.1072C18.0202 15.0645 17.9858 15.0135 17.9628 14.9575C17.9398 14.9014 17.9286 14.8414 17.9299 14.781V11.2382C17.9299 11.117 17.9792 11.0007 18.0668 10.915C18.1545 10.8292 18.2734 10.7811 18.3974 10.7811H20.6567C20.7859 10.7811 20.9097 10.8312 21.001 10.9205C21.0924 11.0098 21.1437 11.131 21.1437 11.2573C21.1437 11.3836 21.0924 11.5047 21.001 11.594C20.9097 11.6833 20.7859 11.7334 20.6567 11.7334H18.8648V12.5811H20.3256C20.4496 12.5811 20.5685 12.6292 20.6562 12.7149C20.7438 12.8007 20.7931 12.917 20.7931 13.0382C20.7931 13.1603 20.7442 13.2776 20.6568 13.3649C20.5694 13.4521 20.4505 13.5024 20.3256 13.5049H18.8648V14.3525H20.7346C20.8638 14.3525 20.9876 14.4026 21.0789 14.4919C21.1703 14.5812 21.2216 14.7024 21.2216 14.8286C21.2216 14.9549 21.1703 15.0761 21.0789 15.1654C20.9876 15.2547 20.8638 15.3048 20.7346 15.3048V15.2382Z" fill="url(#paint2_linear_33_55)"/>
<defs>
<linearGradient id="paint0_linear_33_55" x1="15" y1="0" x2="15" y2="30" gradientUnits="userSpaceOnUse">
<stop stop-color="white" stop-opacity="0.5"/>
<stop offset="1" stop-color="white" stop-opacity="0.1"/>
</linearGradient>
<linearGradient id="paint1_linear_33_55" x1="15" y1="0" x2="15" y2="30" gradientUnits="userSpaceOnUse">
<stop stop-color="white" stop-opacity="0.5"/>
<stop offset="1" stop-color="white" stop-opacity="0"/>
</linearGradient>
<linearGradient id="paint2_linear_33_55" x1="15" y1="5" x2="15" y2="24" gradientUnits="userSpaceOnUse">
<stop/>
<stop offset="1" stop-opacity="0.4"/>
</linearGradient>
</defs>
</svg>
