<svg width="30" height="30" viewBox="0 0 30 30" fill="none" xmlns="http://www.w3.org/2000/svg">
<rect x="0.5" y="0.5" width="29" height="29" rx="7.5" fill="url(#paint0_linear_33_57)" stroke="url(#paint1_linear_33_57)"/>
<path d="M18.9868 6C16.2538 6 13.9868 8.21799 13.9868 10.938C13.9868 11.291 14.0038 11.394 14.0038 11.624C11.6458 11.508 10.1348 10.723 7.94177 8.54303C7.74577 8.34903 7.49278 8.254 7.23678 8.25C7.19078 8.249 7.03678 8.25 6.98678 8.25C6.43478 8.25 5.98678 8.698 5.98678 9.25C5.98678 9.679 5.98678 11.517 5.98678 12C5.98678 13.208 6.38876 14.347 7.00976 15.197C7.00976 15.205 6.98678 15.094 6.98678 16C6.98678 17.55 7.61678 18.71 8.66378 19.4C8.31878 19.938 7.38576 20.326 6.64376 20.656C6.19976 20.853 5.85677 21.002 5.67477 21.063C5.45277 21.139 5.26676 21.313 5.14376 21.531C5.13576 21.544 5.11878 21.549 5.11178 21.563C5.10478 21.576 5.08778 21.579 5.08078 21.594C4.97678 21.825 4.98077 22.059 5.04977 22.281C5.05277 22.292 5.04577 22.302 5.04977 22.313C5.12677 22.535 5.29976 22.72 5.51876 22.844C5.53076 22.851 5.53677 22.868 5.54977 22.875C5.56377 22.882 5.56678 22.9 5.58078 22.906C7.18177 23.627 9.04778 24 10.9868 24C17.6848 24 23.2378 19.162 23.9898 12.26L24.8937 10.438C25.2257 9.77299 24.7308 9 23.9868 9C24.0088 9 23.9807 9.00099 23.8937 8.96899C23.6987 8.89599 23.4797 8.737 23.2688 8.5C23.1768 8.397 23.0738 8.29201 22.9868 8.15601C22.0408 6.79401 20.6138 6 18.9868 6ZM18.9868 8C19.9418 8 20.7718 8.446 21.3308 9.25C21.4518 9.442 21.6038 9.65999 21.7688 9.84399C22.0438 10.153 22.9688 10.493 22.9688 10.493C22.9688 10.493 22.4157 11.531 21.9967 12.015C21.4677 17.648 16.7778 22 10.9868 22C10.2958 22 9.33678 21.986 8.43978 21.821C10.3058 21.263 11.9868 19.276 11.9868 19C9.99878 19 9.25977 17.598 9.06777 16.688C9.65277 16.91 11.2108 17.074 12.0048 16.496C9.06778 15.305 7.98678 13.806 7.98678 12C7.98678 11.874 7.98678 11.543 7.98678 11.281C10.1638 13.1 11.9378 13.642 14.9908 13.62C15.3598 13.618 15.9898 13.348 15.9868 12.625C15.9858 12.347 15.9868 12.212 15.9868 10.938C15.9868 9.33299 17.3478 8 18.9868 8ZM19.9868 10C19.4348 10 18.9868 10.448 18.9868 11C18.9868 11.552 19.4348 12 19.9868 12C20.5398 12 20.9868 11.552 20.9868 11C20.9868 10.448 20.5398 10 19.9868 10Z" fill="url(#paint2_linear_33_57)"/>
<defs>
<linearGradient id="paint0_linear_33_57" x1="15" y1="0" x2="15" y2="30" gradientUnits="userSpaceOnUse">
<stop stop-color="white" stop-opacity="0.5"/>
<stop offset="1" stop-color="white" stop-opacity="0.1"/>
</linearGradient>
<linearGradient id="paint1_linear_33_57" x1="15" y1="0" x2="15" y2="30" gradientUnits="userSpaceOnUse">
<stop stop-color="white" stop-opacity="0.5"/>
<stop offset="1" stop-color="white" stop-opacity="0"/>
</linearGradient>
<linearGradient id="paint2_linear_33_57" x1="14.9995" y1="6" x2="14.9995" y2="24" gradientUnits="userSpaceOnUse">
<stop/>
<stop offset="1" stop-opacity="0.4"/>
</linearGradient>
</defs>
</svg>
